# Alias Wavefront OBJ File Exported from SketchUp
# with OBJexporter (c) 2010-2011 TIG
# Units = meters

mtllib skp_simple.mtl

g simple-SKP--Wax_02
usemtl Wax_02
v 4000.000000 2000.000000 -0.000000
v 0.000000 0.000000 -0.000000
v 4000.000000 0.000000 -0.000000
v 0.000000 2000.000000 -0.000000
v 0.000000 0.000000 -0.000000
v 4000.000000 2000.000000 -0.000000
vn 0.000000 0.000000 1.000000
vn 0.000000 0.000000 1.000000
vn 0.000000 0.000000 1.000000
vn 0.000000 0.000000 1.000000
vn 0.000000 0.000000 1.000000
vn 0.000000 0.000000 1.000000
vt 1 1
vt 0.0 0.0
vt 1.0 0.0
vt 0.0 1
vt 0.0 0.0
vt 1.0 1.0
f 1/1/1 2/2/2 3/3/3
f 4/4/4 5/5/5 6/6/6

g simple-SKP--Material1
usemtl Material1
v 0.000000 3703.520000 -4000.000000
v 0.000000 0.000000 -0.000000
v 0.000000 2000.000000 -0.000000
v 0.000000 0.000000 -4000.000000
v 0.000000 0.000000 -0.000000
v 0.000000 3703.520000 -4000.000000
v 4000.000000 3703.520000 -4000.000000
v 4000.000000 2000.000000 -0.000000
v 4000.000000 0.000000 -4000.000000
v 4000.000000 0.000000 -4000.000000
v 4000.000000 2000.000000 -0.000000
v 4000.000000 0.000000 -0.000000
vn -1.000000 0.000000 -0.000000
vn -1.000000 0.000000 -0.000000
vn -1.000000 0.000000 -0.000000
vn -1.000000 0.000000 -0.000000
vn -1.000000 0.000000 -0.000000
vn -1.000000 0.000000 -0.000000
vn 1.000000 -0.000000 0.000000
vn 1.000000 -0.000000 0.000000
vn 1.000000 -0.000000 0.000000
vn 1.000000 -0.000000 0.000000
vn 1.000000 -0.000000 0.000000
vn 1.000000 -0.000000 0.000000
vt -2.000000 1.851760
vt 0.000000 0.000000
vt 0.000000 1.000000
vt -2.000000 0.000000
vt 0.000000 0.000000
vt -2.000000 1.851760
vt 2.000000 1.851760
vt 0.000000 1.000000
vt 2.000000 -0.000000
vt 2.000000 0.000000
vt 0.000000 1.000000
vt 0.000000 0.000000
f 7/7/7 8/8/8 9/9/9
f 10/10/10 11/11/11 12/12/12
f 13/13/13 14/14/14 15/15/15
f 16/16/16 17/17/17 18/18/18

g simple-SKP--Material2
usemtl Material2
v 4000.000000 2000.000000 -0.000000
v 0.000000 3703.520000 -4000.000000
v 0.000000 2000.000000 -0.000000
v 0.000000 3703.520000 -4000.000000
v 4000.000000 0.000000 -4000.000000
v 0.000000 0.000000 -4000.000000
v 4000.000000 3703.520000 -4000.000000
v 4000.000000 0.000000 -4000.000000
v 0.000000 3703.520000 -4000.000000
v 4000.000000 0.000000 -4000.000000
v 0.000000 0.000000 -0.000000
v 0.000000 0.000000 -4000.000000
v 4000.000000 0.000000 -0.000000
v 0.000000 0.000000 -0.000000
v 4000.000000 0.000000 -4000.000000
v 4000.000000 3703.520000 -4000.000000
v 0.000000 3703.520000 -4000.000000
v 4000.000000 2000.000000 -0.000000
vn -0.000000 0.920039 0.391826
vn -0.000000 0.920039 0.391826
vn -0.000000 0.920039 0.391826
vn -0.000000 -0.000000 -1.000000
vn -0.000000 -0.000000 -1.000000
vn -0.000000 -0.000000 -1.000000
vn -0.000000 -0.000000 -1.000000
vn -0.000000 -0.000000 -1.000000
vn -0.000000 -0.000000 -1.000000
vn 0.000000 -1.000000 -0.000000
vn 0.000000 -1.000000 -0.000000
vn 0.000000 -1.000000 -0.000000
vn 0.000000 -1.000000 -0.000000
vn 0.000000 -1.000000 -0.000000
vn 0.000000 -1.000000 -0.000000
vn -0.000000 0.920039 0.391826
vn -0.000000 0.920039 0.391826
vn -0.000000 0.920039 0.391826
vt 2.000000 0.391826
vt 0.000000 2.565647
vt -0.000000 0.391826
vt 0.000000 1.851760
vt -2.000000 0.000000
vt 0.000000 0.000000
vt -2.000000 1.851760
vt -2.000000 0.000000
vt 0.000000 1.851760
vt -2.000000 2.000000
vt 0.000000 0.000000
vt 0.000000 2.000000
vt -2.000000 0.000000
vt 0.000000 0.000000
vt -2.000000 2.000000
vt 2.000000 2.565647
vt -0.000000 2.565647
vt 2.000000 0.391826
f 19/19/19 20/20/20 21/21/21
f 22/22/22 23/23/23 24/24/24
f 25/25/25 26/26/26 27/27/27
f 28/28/28 29/29/29 30/30/30
f 31/31/31 32/32/32 33/33/33
f 34/34/34 35/35/35 36/36/36

